# xmcd
#
# Track frame offsets: 
#        150
#        26493
#        55391
#        82779
#        106786
#        128328
#        155225
#        173003
#        201424
#        230698
#        256240
#        285739
#        306637
#        328397
#
# Disc length: 4691 seconds
#
# Revision: 1
# Processed by: cddbd v1.5.1PL2 Copyright (c) Steve Scherf et al.
# Submitted via: ExactAudioCopy v0.95a4
#
DISCID=c412510e
DTITLE=Various Club - DubZone Vol.08
DYEAR=2006
DGENRE=
TTITLE0=L.o.b. - Deep inside (Original Mix)
TTITLE1=Samy feat. Sharon Woolf - Rockstar (Sam Paganini Old School Ac
TTITLE1=id Mix)
TTITLE2=Psycho Radio - Call the police (John Dahlback Rmx)
TTITLE3=Lower East Side - Sword fight (Trent Cantrelle Rmx)
TTITLE4=Benassi Bros feat. Dhany - Rocket in the sky (Club Mix)
TTITLE5=Ars Elektro - Love thing (Power Mix)
TTITLE6=Dub Legacy - Relax (Electro Mix)
TTITLE7=Tribal Sax - Tribal sax (Original Mix)
TTITLE8=Last Minute - Last minute (Original Mix)
TTITLE9=Dj Josh - Beat box (Fully Groove Rmx)
TTITLE10=The Soulchip feat. Valerie Scott - Let's rock (Fuzzy Hair Voc
TTITLE10=al Mix)
TTITLE11=Gino - Simon elvis (D. Lewis and Emix Rmx)
TTITLE12=Brando Mennella - Electronic sensation (Elektro Pump Mix)
TTITLE13=Elio Milani - Electronic influence (Original Mix)
EXTD=
EXTT0=
EXTT1=
EXTT2=
EXTT3=
EXTT4=
EXTT5=
EXTT6=
EXTT7=
EXTT8=
EXTT9=
EXTT10=
EXTT11=
EXTT12=
EXTT13=
PLAYORDER=
